<svg xmlns="http://www.w3.org/2000/svg" xmlns:xlink="http://www.w3.org/1999/xlink" viewBox="0 0 1920 707"><defs><style>.a,.e,.g{fill:#10b894;}.a,.b,.c{stroke:#707070;}.b{fill:#fff;}.c{fill:#35caaa;}.d{opacity:0.3;clip-path:url(#a);}.f{clip-path:url(#b);}.g{opacity:0.52;}.h{stroke:none;}.i{fill:none;}</style><clipPath id="a"><rect class="a" width="1920" height="240" transform="translate(0 467)"/></clipPath><clipPath id="b"><rect class="b" width="1920" height="185" transform="translate(0 522)"/></clipPath></defs><g class="c"><rect class="h" width="1920" height="707"/><rect class="i" x="0.5" y="0.5" width="1919" height="706"/></g><g class="d"><path class="e" d="M1956.758,468.707s445.844-22.864,640.186,123.845,506.814,36.2,644-17.148,230.543-135.277,495.382-81.929,362.01,363.915,539.2,66.686,45.728,485.855,45.728,485.855L2084.414,863.107l-144.8-64.781Z" transform="translate(-1982)"/></g><g class="f"><path class="g" d="M1966.286,529.678S2101.563,682.1,2457.857,634.47s283.892-74.307,609.7-78.118,764.031,236.259,933.6,131.467-9.527,224.827-9.527,224.827L1945.327,811.664Z" transform="translate(-1979)"/></g></svg>
